<mxfile host="65bd71144e" agent="Mozilla/5.0 (Windows NT 10.0; Win64; x64) AppleWebKit/537.36 (KHTML, like Gecko) Code/1.93.1 Chrome/124.0.6367.243 Electron/30.4.0 Safari/537.36" version="24.7.16">
    <diagram name="OSI et TCP/IP" id="RMZOoXyUO4KD-8H-2SCO">
        <mxGraphModel dx="1070" dy="625" grid="1" gridSize="10" guides="1" tooltips="1" connect="1" arrows="1" fold="1" page="1" pageScale="1" pageWidth="827" pageHeight="1169" math="0" shadow="0">
            <root>
                <mxCell id="0"/>
                <mxCell id="1" parent="0"/>
                <mxCell id="0EL3lhgbW3ywufLgSN8_-1" value="" style="rounded=0;whiteSpace=wrap;html=1;fontFamily=Comic Sans MS;textShadow=0;" parent="1" vertex="1">
                    <mxGeometry x="40" y="40" width="350" height="260" as="geometry"/>
                </mxCell>
                <mxCell id="0EL3lhgbW3ywufLgSN8_-2" value="Application" style="rounded=0;whiteSpace=wrap;html=1;fillColor=#FFCCCC;sketch=1;curveFitting=1;jiggle=2;fontFamily=Comic Sans MS;" parent="1" vertex="1">
                    <mxGeometry x="70" y="80" width="90" height="20" as="geometry"/>
                </mxCell>
                <mxCell id="0EL3lhgbW3ywufLgSN8_-3" value="Présentation" style="rounded=0;whiteSpace=wrap;html=1;fillColor=#FFE6CC;sketch=1;curveFitting=1;jiggle=2;fontFamily=Comic Sans MS;" parent="1" vertex="1">
                    <mxGeometry x="70" y="110" width="90" height="20" as="geometry"/>
                </mxCell>
                <mxCell id="0EL3lhgbW3ywufLgSN8_-4" style="edgeStyle=orthogonalEdgeStyle;rounded=0;sketch=1;hachureGap=4;jiggle=2;curveFitting=1;orthogonalLoop=1;jettySize=auto;html=1;exitX=1;exitY=0.5;exitDx=0;exitDy=0;entryX=0;entryY=0.5;entryDx=0;entryDy=0;fontFamily=Comic Sans MS;" parent="1" source="0EL3lhgbW3ywufLgSN8_-5" target="0EL3lhgbW3ywufLgSN8_-21" edge="1">
                    <mxGeometry relative="1" as="geometry"/>
                </mxCell>
                <mxCell id="0EL3lhgbW3ywufLgSN8_-5" value="Session" style="rounded=0;whiteSpace=wrap;html=1;fillColor=#FFFFCC;sketch=1;curveFitting=1;jiggle=2;fontFamily=Comic Sans MS;" parent="1" vertex="1">
                    <mxGeometry x="70" y="140" width="90" height="20" as="geometry"/>
                </mxCell>
                <mxCell id="0EL3lhgbW3ywufLgSN8_-6" style="edgeStyle=orthogonalEdgeStyle;rounded=0;sketch=1;hachureGap=4;jiggle=2;curveFitting=1;orthogonalLoop=1;jettySize=auto;html=1;exitX=1;exitY=0.5;exitDx=0;exitDy=0;entryX=0;entryY=0.5;entryDx=0;entryDy=0;fontFamily=Comic Sans MS;" parent="1" source="0EL3lhgbW3ywufLgSN8_-7" target="0EL3lhgbW3ywufLgSN8_-22" edge="1">
                    <mxGeometry relative="1" as="geometry"/>
                </mxCell>
                <mxCell id="0EL3lhgbW3ywufLgSN8_-7" value="Transport" style="rounded=0;whiteSpace=wrap;html=1;fillColor=#CCFFCC;sketch=1;curveFitting=1;jiggle=2;fontFamily=Comic Sans MS;" parent="1" vertex="1">
                    <mxGeometry x="70" y="170" width="90" height="20" as="geometry"/>
                </mxCell>
                <mxCell id="0EL3lhgbW3ywufLgSN8_-8" style="edgeStyle=orthogonalEdgeStyle;rounded=0;sketch=1;hachureGap=4;jiggle=2;curveFitting=1;orthogonalLoop=1;jettySize=auto;html=1;exitX=1;exitY=0.5;exitDx=0;exitDy=0;entryX=0;entryY=0.5;entryDx=0;entryDy=0;fontFamily=Comic Sans MS;" parent="1" source="0EL3lhgbW3ywufLgSN8_-9" target="0EL3lhgbW3ywufLgSN8_-24" edge="1">
                    <mxGeometry relative="1" as="geometry"/>
                </mxCell>
                <mxCell id="0EL3lhgbW3ywufLgSN8_-9" value="Réseau" style="rounded=0;whiteSpace=wrap;html=1;fillColor=#CCFFFF;sketch=1;curveFitting=1;jiggle=2;fontFamily=Comic Sans MS;" parent="1" vertex="1">
                    <mxGeometry x="70" y="200" width="90" height="20" as="geometry"/>
                </mxCell>
                <mxCell id="0EL3lhgbW3ywufLgSN8_-10" style="edgeStyle=orthogonalEdgeStyle;rounded=0;sketch=1;hachureGap=4;jiggle=2;curveFitting=1;orthogonalLoop=1;jettySize=auto;html=1;exitX=1;exitY=0.5;exitDx=0;exitDy=0;entryX=0;entryY=0.5;entryDx=0;entryDy=0;fontFamily=Comic Sans MS;" parent="1" source="0EL3lhgbW3ywufLgSN8_-11" target="0EL3lhgbW3ywufLgSN8_-23" edge="1">
                    <mxGeometry relative="1" as="geometry"/>
                </mxCell>
                <mxCell id="0EL3lhgbW3ywufLgSN8_-11" value="Liaison" style="rounded=0;whiteSpace=wrap;html=1;fillColor=#CCE5FF;sketch=1;curveFitting=1;jiggle=2;fontFamily=Comic Sans MS;" parent="1" vertex="1">
                    <mxGeometry x="70" y="230" width="90" height="20" as="geometry"/>
                </mxCell>
                <mxCell id="0EL3lhgbW3ywufLgSN8_-12" style="edgeStyle=orthogonalEdgeStyle;rounded=0;sketch=1;hachureGap=4;jiggle=2;curveFitting=1;orthogonalLoop=1;jettySize=auto;html=1;exitX=1;exitY=0.5;exitDx=0;exitDy=0;fontFamily=Comic Sans MS;entryX=0;entryY=0.5;entryDx=0;entryDy=0;" parent="1" source="0EL3lhgbW3ywufLgSN8_-13" target="0EL3lhgbW3ywufLgSN8_-23" edge="1">
                    <mxGeometry relative="1" as="geometry">
                        <mxPoint x="200" y="250" as="targetPoint"/>
                        <Array as="points">
                            <mxPoint x="180" y="270"/>
                            <mxPoint x="180" y="255"/>
                        </Array>
                    </mxGeometry>
                </mxCell>
                <mxCell id="0EL3lhgbW3ywufLgSN8_-13" value="Physique" style="rounded=0;whiteSpace=wrap;html=1;fillColor=#E5CCFF;sketch=1;curveFitting=1;jiggle=2;fontFamily=Comic Sans MS;" parent="1" vertex="1">
                    <mxGeometry x="70" y="260" width="90" height="20" as="geometry"/>
                </mxCell>
                <mxCell id="0EL3lhgbW3ywufLgSN8_-14" value="7" style="rounded=0;whiteSpace=wrap;html=1;strokeColor=none;align=center;verticalAlign=middle;fontFamily=Comic Sans MS;fontSize=12;fontColor=default;fillColor=none;sketch=1;curveFitting=1;jiggle=2;" parent="1" vertex="1">
                    <mxGeometry x="50" y="80" width="20" height="20" as="geometry"/>
                </mxCell>
                <mxCell id="0EL3lhgbW3ywufLgSN8_-15" value="6" style="rounded=0;whiteSpace=wrap;html=1;strokeColor=none;align=center;verticalAlign=middle;fontFamily=Comic Sans MS;fontSize=12;fontColor=default;fillColor=none;sketch=1;curveFitting=1;jiggle=2;" parent="1" vertex="1">
                    <mxGeometry x="50" y="110" width="20" height="20" as="geometry"/>
                </mxCell>
                <mxCell id="0EL3lhgbW3ywufLgSN8_-16" value="5" style="rounded=0;whiteSpace=wrap;html=1;strokeColor=none;align=center;verticalAlign=middle;fontFamily=Comic Sans MS;fontSize=12;fontColor=default;fillColor=none;sketch=1;curveFitting=1;jiggle=2;" parent="1" vertex="1">
                    <mxGeometry x="50" y="140" width="20" height="20" as="geometry"/>
                </mxCell>
                <mxCell id="0EL3lhgbW3ywufLgSN8_-17" value="4" style="rounded=0;whiteSpace=wrap;html=1;strokeColor=none;align=center;verticalAlign=middle;fontFamily=Comic Sans MS;fontSize=12;fontColor=default;fillColor=none;sketch=1;curveFitting=1;jiggle=2;" parent="1" vertex="1">
                    <mxGeometry x="50" y="170" width="20" height="20" as="geometry"/>
                </mxCell>
                <mxCell id="0EL3lhgbW3ywufLgSN8_-18" value="3" style="rounded=0;whiteSpace=wrap;html=1;strokeColor=none;align=center;verticalAlign=middle;fontFamily=Comic Sans MS;fontSize=12;fontColor=default;fillColor=none;sketch=1;curveFitting=1;jiggle=2;" parent="1" vertex="1">
                    <mxGeometry x="50" y="200" width="20" height="20" as="geometry"/>
                </mxCell>
                <mxCell id="0EL3lhgbW3ywufLgSN8_-19" value="2" style="rounded=0;whiteSpace=wrap;html=1;strokeColor=none;align=center;verticalAlign=middle;fontFamily=Comic Sans MS;fontSize=12;fontColor=default;fillColor=none;sketch=1;curveFitting=1;jiggle=2;" parent="1" vertex="1">
                    <mxGeometry x="50" y="230" width="20" height="20" as="geometry"/>
                </mxCell>
                <mxCell id="0EL3lhgbW3ywufLgSN8_-20" value="1" style="rounded=0;whiteSpace=wrap;html=1;fillColor=none;strokeColor=none;sketch=1;curveFitting=1;jiggle=2;fontFamily=Comic Sans MS;" parent="1" vertex="1">
                    <mxGeometry x="50" y="260" width="20" height="20" as="geometry"/>
                </mxCell>
                <mxCell id="0EL3lhgbW3ywufLgSN8_-21" value="Application" style="rounded=0;whiteSpace=wrap;html=1;fillColor=#FFCCCC;sketch=1;curveFitting=1;jiggle=2;fontFamily=Comic Sans MS;" parent="1" vertex="1">
                    <mxGeometry x="200" y="80" width="90" height="80" as="geometry"/>
                </mxCell>
                <mxCell id="0EL3lhgbW3ywufLgSN8_-22" value="Transport" style="rounded=0;whiteSpace=wrap;html=1;fillColor=#CCFFCC;sketch=1;curveFitting=1;jiggle=2;fontFamily=Comic Sans MS;" parent="1" vertex="1">
                    <mxGeometry x="200" y="170" width="90" height="20" as="geometry"/>
                </mxCell>
                <mxCell id="0EL3lhgbW3ywufLgSN8_-23" value="Accès au réseau" style="rounded=0;whiteSpace=wrap;html=1;fillColor=#CCE5FF;sketch=1;curveFitting=1;jiggle=2;fontFamily=Comic Sans MS;" parent="1" vertex="1">
                    <mxGeometry x="200" y="230" width="90" height="50" as="geometry"/>
                </mxCell>
                <mxCell id="0EL3lhgbW3ywufLgSN8_-24" value="Internet" style="rounded=0;whiteSpace=wrap;html=1;fillColor=#CCFFFF;sketch=1;curveFitting=1;jiggle=2;fontFamily=Comic Sans MS;" parent="1" vertex="1">
                    <mxGeometry x="200" y="200" width="90" height="20" as="geometry"/>
                </mxCell>
                <mxCell id="0EL3lhgbW3ywufLgSN8_-25" value="HTTP,&lt;div&gt;HTTPS&lt;/div&gt;" style="text;html=1;align=left;verticalAlign=middle;whiteSpace=wrap;rounded=0;sketch=1;curveFitting=1;jiggle=2;fontFamily=Comic Sans MS;" parent="1" vertex="1">
                    <mxGeometry x="310" y="80" width="60" height="80" as="geometry"/>
                </mxCell>
                <mxCell id="0EL3lhgbW3ywufLgSN8_-26" value="TCP" style="text;html=1;align=left;verticalAlign=middle;whiteSpace=wrap;rounded=0;sketch=1;curveFitting=1;jiggle=2;fontFamily=Comic Sans MS;" parent="1" vertex="1">
                    <mxGeometry x="310" y="170" width="60" height="20" as="geometry"/>
                </mxCell>
                <mxCell id="0EL3lhgbW3ywufLgSN8_-27" value="IP" style="text;html=1;align=left;verticalAlign=middle;whiteSpace=wrap;rounded=0;sketch=1;curveFitting=1;jiggle=2;fontFamily=Comic Sans MS;" parent="1" vertex="1">
                    <mxGeometry x="310" y="200" width="60" height="20" as="geometry"/>
                </mxCell>
                <mxCell id="0EL3lhgbW3ywufLgSN8_-28" value="Ethernet" style="text;html=1;align=left;verticalAlign=middle;whiteSpace=wrap;rounded=0;sketch=1;curveFitting=1;jiggle=2;fontFamily=Comic Sans MS;" parent="1" vertex="1">
                    <mxGeometry x="310" y="230" width="60" height="50" as="geometry"/>
                </mxCell>
                <mxCell id="0EL3lhgbW3ywufLgSN8_-29" value="Protocoles" style="text;html=1;align=left;verticalAlign=middle;whiteSpace=wrap;rounded=0;sketch=1;curveFitting=1;jiggle=2;fontFamily=Comic Sans MS;" parent="1" vertex="1">
                    <mxGeometry x="310" y="50" width="70" height="20" as="geometry"/>
                </mxCell>
                <mxCell id="0EL3lhgbW3ywufLgSN8_-30" value="Modèle TCP/IP" style="text;html=1;align=center;verticalAlign=middle;whiteSpace=wrap;rounded=0;sketch=1;curveFitting=1;jiggle=2;fontFamily=Comic Sans MS;" parent="1" vertex="1">
                    <mxGeometry x="200" y="50" width="90" height="20" as="geometry"/>
                </mxCell>
                <mxCell id="0EL3lhgbW3ywufLgSN8_-31" value="Modèle OSI" style="text;html=1;align=center;verticalAlign=middle;whiteSpace=wrap;rounded=0;sketch=1;curveFitting=1;jiggle=2;fontFamily=Comic Sans MS;" parent="1" vertex="1">
                    <mxGeometry x="50" y="50" width="110" height="20" as="geometry"/>
                </mxCell>
                <mxCell id="0EL3lhgbW3ywufLgSN8_-32" value="" style="endArrow=classic;html=1;rounded=0;sketch=1;hachureGap=4;jiggle=2;curveFitting=1;fontFamily=Comic Sans MS;entryX=0;entryY=0.5;entryDx=0;entryDy=0;exitX=1;exitY=0.5;exitDx=0;exitDy=0;edgeStyle=orthogonalEdgeStyle;" parent="1" source="0EL3lhgbW3ywufLgSN8_-2" target="0EL3lhgbW3ywufLgSN8_-21" edge="1">
                    <mxGeometry width="50" height="50" relative="1" as="geometry">
                        <mxPoint x="130" y="210" as="sourcePoint"/>
                        <mxPoint x="180" y="160" as="targetPoint"/>
                    </mxGeometry>
                </mxCell>
            </root>
        </mxGraphModel>
    </diagram>
</mxfile>